<svg xmlns="http://www.w3.org/2000/svg" xmlns:xlink="http://www.w3.org/1999/xlink" width="40" zoomAndPan="magnify" viewBox="0 0 30 30.000001" height="40" preserveAspectRatio="xMidYMid meet" version="1.0"><defs><clipPath id="275b2c2b4c"><path d="M 0.484375 0 L 29.515625 0 L 29.515625 29.03125 L 0.484375 29.03125 Z M 0.484375 0 " clip-rule="nonzero"/></clipPath><clipPath id="50eceabc29"><path d="M 15 0 C 6.984375 0 0.484375 6.5 0.484375 14.515625 C 0.484375 22.53125 6.984375 29.03125 15 29.03125 C 23.015625 29.03125 29.515625 22.53125 29.515625 14.515625 C 29.515625 6.5 23.015625 0 15 0 Z M 15 0 " clip-rule="nonzero"/></clipPath><clipPath id="d67d5d6f61"><path d="M 0.484375 0 L 29.515625 0 L 29.515625 29.03125 L 0.484375 29.03125 Z M 0.484375 0 " clip-rule="nonzero"/></clipPath><clipPath id="40b6218632"><path d="M 15 0 C 6.984375 0 0.484375 6.5 0.484375 14.515625 C 0.484375 22.53125 6.984375 29.03125 15 29.03125 C 23.015625 29.03125 29.515625 22.53125 29.515625 14.515625 C 29.515625 6.5 23.015625 0 15 0 Z M 15 0 " clip-rule="nonzero"/></clipPath><clipPath id="d5dccae6ea"><rect x="0" width="30" y="0" height="30"/></clipPath><clipPath id="b38128620c"><path d="M 3.386719 2.902344 L 25.160156 2.902344 L 25.160156 24.675781 L 3.386719 24.675781 Z M 3.386719 2.902344 " clip-rule="nonzero"/></clipPath></defs><g clip-path="url(#275b2c2b4c)"><g clip-path="url(#50eceabc29)"><g transform="matrix(1, 0, 0, 1, 0, 0.000000000000005692)"><g clip-path="url(#d5dccae6ea)"><g clip-path="url(#d67d5d6f61)"><g clip-path="url(#40b6218632)"><path fill="#ffffff" d="M 0.484375 0 L 29.515625 0 L 29.515625 29.03125 L 0.484375 29.03125 Z M 0.484375 0 " fill-opacity="1" fill-rule="nonzero"/></g></g></g></g></g></g><g clip-path="url(#b38128620c)"><path fill="#000000" d="M 12.066406 5.925781 L 18.140625 5.925781 L 23.425781 16.707031 L 20.960938 21.742188 L 8.808594 21.742188 L 6.34375 16.707031 C 8.109375 13.113281 9.871094 9.519531 11.632812 5.925781 Z M 7.039062 24.605469 L 11.136719 24.605469 L 11.136719 23.03125 L 5.703125 23.03125 L 5.703125 23.039062 C 5.484375 23.039062 5.300781 22.960938 5.152344 22.804688 C 5.003906 22.648438 4.933594 22.464844 4.929688 22.25 L 4.921875 22.25 L 4.921875 16.871094 L 3.394531 16.871094 L 3.394531 22.25 L 3.386719 22.25 C 3.386719 22.84375 3.582031 23.367188 3.972656 23.808594 C 4.003906 23.84375 4.03125 23.878906 4.066406 23.910156 C 4.425781 24.289062 4.863281 24.511719 5.378906 24.574219 C 5.488281 24.589844 5.59375 24.597656 5.703125 24.597656 L 5.703125 24.605469 Z M 21.519531 2.976562 L 17.417969 2.976562 L 17.417969 4.550781 L 22.855469 4.550781 L 22.855469 4.542969 C 23.066406 4.542969 23.246094 4.621094 23.398438 4.777344 C 23.550781 4.929688 23.625 5.117188 23.625 5.335938 L 23.625 10.707031 L 25.160156 10.707031 L 25.160156 5.335938 C 25.164062 4.742188 24.972656 4.21875 24.582031 3.769531 C 24.554688 3.734375 24.519531 3.703125 24.488281 3.667969 C 24.125 3.300781 23.6875 3.082031 23.175781 3.003906 C 23.070312 2.992188 22.960938 2.984375 22.855469 2.984375 L 22.855469 2.976562 Z M 9.03125 18.972656 L 13.824219 11.027344 L 12.160156 8.054688 L 7.917969 16.707031 Z M 14.617188 12.449219 L 12.789062 15.488281 L 16.324219 15.488281 Z M 11.917969 16.921875 L 9.878906 20.304688 L 20.089844 20.304688 L 21.738281 16.921875 Z M 17.945312 15.488281 L 21.253906 15.488281 L 17.273438 7.363281 L 13.394531 7.363281 Z M 17.945312 15.488281 " fill-opacity="1" fill-rule="nonzero"/></g></svg>