<svg xmlns="http://www.w3.org/2000/svg" xmlns:xlink="http://www.w3.org/1999/xlink" width="40" zoomAndPan="magnify" viewBox="0 0 30 30.000001" height="40" preserveAspectRatio="xMidYMid meet" version="1.0"><defs><g/><clipPath id="e794c3dca6"><path d="M 0.484375 9 L 27 9 L 27 20 L 0.484375 20 Z M 0.484375 9 " clip-rule="nonzero"/></clipPath><clipPath id="e96402b809"><path d="M 0.484375 1 L 9.171875 1 L 9.171875 9.664062 L 0.484375 9.664062 Z M 0.484375 1 " clip-rule="nonzero"/></clipPath><clipPath id="7ee7fb163d"><path d="M 11 1 L 26.730469 1 L 26.730469 10 L 11 10 Z M 11 1 " clip-rule="nonzero"/></clipPath><clipPath id="5b013eafba"><path d="M 0.167969 1 L 3 1 L 3 4 L 0.167969 4 Z M 0.167969 1 " clip-rule="nonzero"/></clipPath><clipPath id="41dd64835c"><path d="M 12 1 L 15.730469 1 L 15.730469 4 L 12 4 Z M 12 1 " clip-rule="nonzero"/></clipPath><clipPath id="148d4aaeeb"><path d="M 0.167969 4 L 4 4 L 4 8 L 0.167969 8 Z M 0.167969 4 " clip-rule="nonzero"/></clipPath><clipPath id="68af6deb38"><path d="M 12 4 L 15.730469 4 L 15.730469 8 L 12 8 Z M 12 4 " clip-rule="nonzero"/></clipPath><clipPath id="52d781c6f2"><rect x="0" width="16" y="0" height="9"/></clipPath><clipPath id="2fc7c3d897"><rect x="0" width="27" y="0" height="11"/></clipPath></defs><g clip-path="url(#e794c3dca6)"><g transform="matrix(1, 0, 0, 1, 0, 9)"><g clip-path="url(#2fc7c3d897)"><g clip-path="url(#e96402b809)"><path fill="#000000" d="M 3.945312 2.1875 L 6.371094 2.1875 L 8.480469 6.484375 L 7.496094 8.492188 L 2.648438 8.492188 L 1.664062 6.484375 C 2.367188 5.050781 3.070312 3.617188 3.773438 2.1875 Z M 1.941406 9.632812 L 3.578125 9.632812 L 3.578125 9.003906 L 1.40625 9.003906 L 1.40625 9.007812 C 1.320312 9.007812 1.25 8.976562 1.1875 8.914062 C 1.128906 8.855469 1.101562 8.78125 1.097656 8.695312 L 1.097656 6.550781 L 0.488281 6.550781 L 0.488281 8.695312 L 0.484375 8.695312 C 0.484375 8.933594 0.5625 9.140625 0.71875 9.316406 C 0.730469 9.332031 0.742188 9.34375 0.753906 9.355469 C 0.898438 9.507812 1.074219 9.59375 1.277344 9.621094 C 1.320312 9.628906 1.363281 9.628906 1.40625 9.628906 L 1.40625 9.632812 Z M 7.71875 1.007812 L 6.082031 1.007812 L 6.082031 1.636719 L 8.25 1.636719 L 8.25 1.632812 C 8.335938 1.636719 8.410156 1.667969 8.46875 1.726562 C 8.527344 1.789062 8.558594 1.863281 8.558594 1.949219 L 8.558594 4.09375 L 9.171875 4.09375 L 9.171875 1.949219 C 9.175781 1.714844 9.097656 1.503906 8.941406 1.328125 C 8.929688 1.3125 8.914062 1.300781 8.902344 1.285156 C 8.757812 1.140625 8.582031 1.050781 8.378906 1.019531 C 8.335938 1.015625 8.292969 1.011719 8.25 1.011719 L 8.25 1.007812 Z M 2.734375 7.386719 L 4.648438 4.21875 L 3.984375 3.035156 L 2.292969 6.484375 Z M 4.964844 4.785156 L 4.234375 6 L 5.644531 6 Z M 3.886719 6.570312 L 3.074219 7.917969 L 7.148438 7.917969 L 7.808594 6.570312 Z M 6.292969 6 L 7.613281 6 L 6.023438 2.757812 L 4.476562 2.757812 Z M 6.292969 6 " fill-opacity="1" fill-rule="nonzero"/></g><g clip-path="url(#7ee7fb163d)"><g transform="matrix(1, 0, 0, 1, 11, 1)"><g clip-path="url(#52d781c6f2)"><g clip-path="url(#5b013eafba)"><g fill="#000000" fill-opacity="1"><g transform="translate(0.19679, 3.861421)"><g><path d="M 0.21875 0 L 0.21875 -2.796875 L 0.890625 -2.796875 L 0.890625 -1.71875 L 2.03125 -1.71875 L 2.03125 -2.796875 L 2.703125 -2.796875 L 2.703125 0 L 2.03125 0 L 2.03125 -1.171875 L 0.890625 -1.171875 L 0.890625 0 Z M 0.21875 0 "/></g></g></g></g><g fill="#000000" fill-opacity="1"><g transform="translate(3.115499, 3.861421)"><g><path d="M 0.015625 0 L 1.03125 -2.796875 L 1.84375 -2.796875 L 2.859375 0 L 2.15625 0 L 1.984375 -0.546875 L 0.90625 -0.546875 L 0.71875 0 Z M 1.03125 -1.03125 L 1.859375 -1.03125 L 1.4375 -2.265625 Z M 1.03125 -1.03125 "/></g></g></g><g fill="#000000" fill-opacity="1"><g transform="translate(5.998853, 3.861421)"><g><path d="M 0.21875 0 L 0.21875 -2.796875 L 1.09375 -2.796875 L 1.90625 -0.75 L 2.734375 -2.796875 L 3.59375 -2.796875 L 3.59375 0 L 2.984375 0 L 2.984375 -1.96875 L 2.1875 0 L 1.640625 0 L 0.828125 -1.953125 L 0.828125 0 Z M 0.21875 0 "/></g></g></g><g fill="#000000" fill-opacity="1"><g transform="translate(9.821066, 3.861421)"><g><path d="M 0.09375 0 L 0.09375 -0.59375 L 1.578125 -2.265625 L 0.140625 -2.265625 L 0.140625 -2.796875 L 2.328125 -2.796875 L 2.328125 -2.203125 L 0.84375 -0.53125 L 2.359375 -0.53125 L 2.359375 0 Z M 0.09375 0 "/></g></g></g><g clip-path="url(#41dd64835c)"><g fill="#000000" fill-opacity="1"><g transform="translate(12.288025, 3.861421)"><g><path d="M 0.015625 0 L 1.03125 -2.796875 L 1.84375 -2.796875 L 2.859375 0 L 2.15625 0 L 1.984375 -0.546875 L 0.90625 -0.546875 L 0.71875 0 Z M 1.03125 -1.03125 L 1.859375 -1.03125 L 1.4375 -2.265625 Z M 1.03125 -1.03125 "/></g></g></g></g><g clip-path="url(#148d4aaeeb)"><g fill="#3f76da" fill-opacity="1"><g transform="translate(0.19679, 7.134961)"><g><path d="M 1.046875 0 L 0.015625 -2.796875 L 0.71875 -2.796875 L 1.421875 -0.59375 L 1.4375 -0.59375 L 2.140625 -2.796875 L 2.828125 -2.796875 L 1.8125 0 Z M 1.046875 0 "/></g></g></g></g><g fill="#3f76da" fill-opacity="1"><g transform="translate(2.683389, 7.134961)"><g><path d="M 0.015625 0 L 1.03125 -2.796875 L 1.84375 -2.796875 L 2.859375 0 L 2.15625 0 L 1.984375 -0.546875 L 0.90625 -0.546875 L 0.71875 0 Z M 1.03125 -1.03125 L 1.859375 -1.03125 L 1.4375 -2.265625 Z M 1.03125 -1.03125 "/></g></g></g><g fill="#3f76da" fill-opacity="1"><g transform="translate(5.433181, 7.134961)"><g><path d="M 1.4375 0.09375 C 1.1875 0.09375 0.960938 0.046875 0.765625 -0.046875 C 0.578125 -0.140625 0.429688 -0.273438 0.328125 -0.453125 C 0.234375 -0.628906 0.1875 -0.835938 0.1875 -1.078125 L 0.1875 -2.796875 L 0.859375 -2.796875 L 0.859375 -1.09375 C 0.859375 -0.914062 0.910156 -0.769531 1.015625 -0.65625 C 1.117188 -0.539062 1.257812 -0.484375 1.4375 -0.484375 C 1.625 -0.484375 1.769531 -0.535156 1.875 -0.640625 C 1.976562 -0.753906 2.03125 -0.90625 2.03125 -1.09375 L 2.03125 -2.796875 L 2.703125 -2.796875 L 2.703125 -1.078125 C 2.703125 -0.835938 2.648438 -0.628906 2.546875 -0.453125 C 2.441406 -0.273438 2.296875 -0.140625 2.109375 -0.046875 C 1.921875 0.046875 1.695312 0.09375 1.4375 0.09375 Z M 1.4375 0.09375 "/></g></g></g><g fill="#3f76da" fill-opacity="1"><g transform="translate(8.324392, 7.134961)"><g><path d="M 0.21875 0 L 0.21875 -2.796875 L 0.890625 -2.796875 L 0.890625 -0.578125 L 2.046875 -0.578125 L 2.046875 0 Z M 0.21875 0 "/></g></g></g><g fill="#3f76da" fill-opacity="1"><g transform="translate(9.974269, 7.134961)"><g><path d="M 0.890625 0 L 0.890625 -2.21875 L 0.0625 -2.21875 L 0.0625 -2.796875 L 2.40625 -2.796875 L 2.40625 -2.21875 L 1.5625 -2.21875 L 1.5625 0 Z M 0.890625 0 "/></g></g></g><g clip-path="url(#68af6deb38)"><g fill="#000000" fill-opacity="1"><g transform="translate(12.441876, 7.134961)"><g><path d="M 0.015625 0 L 0.96875 -1.46875 L 0.046875 -2.796875 L 0.8125 -2.796875 L 1.4375 -1.84375 L 2.0625 -2.796875 L 2.84375 -2.796875 L 1.890625 -1.46875 L 2.859375 0 L 2.078125 0 L 1.4375 -1.015625 L 0.796875 0 Z M 0.015625 0 "/></g></g></g></g></g></g></g></g></g></g></svg>